<svg width="24" height="24" viewBox="0 0 24 24" fill="none" xmlns="http://www.w3.org/2000/svg">
<g clip-path="url(#clip0_2044_2150)">
<path d="M22.6607 0.839294H18.4643L17.004 15.3589C16.9433 15.7592 16.7399 16.124 16.4315 16.3862C16.123 16.6484 15.7302 16.7903 15.3254 16.7857H4.75038C4.38434 16.8048 4.02211 16.7036 3.71901 16.4975C3.41591 16.2914 3.18861 15.9917 3.07181 15.6443L0.839313 8.93001C0.756075 8.67758 0.733975 8.40899 0.77483 8.14634C0.815686 7.8837 0.91833 7.63451 1.07431 7.41929C1.23681 7.19047 1.45409 7.00604 1.70628 6.88288C1.95847 6.75972 2.23751 6.70176 2.51788 6.71429H17.8768" stroke="white" stroke-width="1.67857" stroke-linecap="round" stroke-linejoin="round"/>
<path d="M5.0357 22.6607C5.49922 22.6607 5.87498 22.285 5.87498 21.8214C5.87498 21.3579 5.49922 20.9821 5.0357 20.9821C4.57217 20.9821 4.19641 21.3579 4.19641 21.8214C4.19641 22.285 4.57217 22.6607 5.0357 22.6607Z" stroke="white" stroke-width="1.67857" stroke-linecap="round" stroke-linejoin="round"/>
<path d="M15.9465 22.6607C16.41 22.6607 16.7857 22.285 16.7857 21.8214C16.7857 21.3579 16.41 20.9821 15.9465 20.9821C15.4829 20.9821 15.1072 21.3579 15.1072 21.8214C15.1072 22.285 15.4829 22.6607 15.9465 22.6607Z" stroke="white" stroke-width="1.67857" stroke-linecap="round" stroke-linejoin="round"/>
</g>
<defs>
<clipPath id="clip0_2044_2150">
<rect width="23.5" height="23.5" fill="white"/>
</clipPath>
</defs>
</svg>
