<svg width="76" height="76" viewBox="0 0 76 76" fill="none" xmlns="http://www.w3.org/2000/svg">
<rect x="0.579193" y="0.53418" width="74.072" height="74.072" fill="#101010" stroke="white"/>
<rect x="13.5328" y="0.59303" width="62.2368" height="62.2368" transform="rotate(12 13.5328 0.59303)" fill="white" stroke="white"/>
<mask id="path-3-outside-1_2044_235" maskUnits="userSpaceOnUse" x="26.3055" y="2.98199" width="48.2363" height="33.6018" fill="black">
<rect fill="white" x="26.3055" y="2.98199" width="48.2363" height="33.6018"/>
<path d="M37.7016 28.402C34.8076 27.7869 32.7632 26.5291 31.5686 24.6288C29.9279 22.2603 29.4939 19.2581 30.2667 15.6222C31.0551 11.913 32.6727 9.34691 35.1193 7.92381C36.9836 6.67366 39.3628 6.35616 42.2569 6.97131C45.1509 7.58646 47.1953 8.84421 48.3899 10.7446C50.037 13.0378 50.4664 16.039 49.678 19.7482C48.9052 23.3841 47.2922 25.9512 44.8391 27.4495C42.9749 28.6997 40.5957 29.0172 37.7016 28.402ZM42.8556 23.8116C44.0984 22.7835 44.9621 21.1293 45.4468 18.8488C45.9296 16.5775 45.8078 14.7186 45.0815 13.272C44.3663 11.8181 43.1707 10.9131 41.4947 10.5568C39.8187 10.2006 38.3502 10.5346 37.0891 11.5588C35.8281 12.583 34.9552 14.2353 34.4705 16.5157C33.9857 18.7962 34.1111 20.6607 34.8466 22.1093C35.582 23.5578 36.7878 24.4602 38.4637 24.8165C40.1397 25.1727 41.6037 24.8378 42.8556 23.8116ZM58.7554 32.8771C55.8613 32.262 53.817 31.0042 52.6223 29.1039C50.9816 26.7354 50.5476 23.7332 51.3205 20.0973C52.1089 16.3882 53.7264 13.822 56.1731 12.3989C58.0374 11.1488 60.4165 10.8313 63.3106 11.4464C66.2046 12.0616 68.249 13.3193 69.4436 15.2197C71.0908 17.5129 71.5201 20.5141 70.7317 24.2233C69.9589 27.8592 68.3459 30.4263 65.8929 31.9246C64.0286 33.1748 61.6494 33.4923 58.7554 32.8771ZM63.9093 28.2867C65.1521 27.2587 66.0158 25.6044 66.5005 23.3239C66.9833 21.0526 66.8616 19.1937 66.1353 17.7471C65.42 16.2932 64.2245 15.3882 62.5485 15.0319C60.8725 14.6757 59.4039 15.0097 58.1429 16.0339C56.8818 17.0581 56.0089 18.7104 55.5242 20.9908C55.0395 23.2713 55.1648 25.1358 55.9003 26.5844C56.6358 28.0329 57.8415 28.9354 59.5175 29.2916C61.1935 29.6478 62.6574 29.3129 63.9093 28.2867Z"/>
</mask>
<path d="M37.7016 28.402C34.8076 27.7869 32.7632 26.5291 31.5686 24.6288C29.9279 22.2603 29.4939 19.2581 30.2667 15.6222C31.0551 11.913 32.6727 9.34691 35.1193 7.92381C36.9836 6.67366 39.3628 6.35616 42.2569 6.97131C45.1509 7.58646 47.1953 8.84421 48.3899 10.7446C50.037 13.0378 50.4664 16.039 49.678 19.7482C48.9052 23.3841 47.2922 25.9512 44.8391 27.4495C42.9749 28.6997 40.5957 29.0172 37.7016 28.402ZM42.8556 23.8116C44.0984 22.7835 44.9621 21.1293 45.4468 18.8488C45.9296 16.5775 45.8078 14.7186 45.0815 13.272C44.3663 11.8181 43.1707 10.9131 41.4947 10.5568C39.8187 10.2006 38.3502 10.5346 37.0891 11.5588C35.8281 12.583 34.9552 14.2353 34.4705 16.5157C33.9857 18.7962 34.1111 20.6607 34.8466 22.1093C35.582 23.5578 36.7878 24.4602 38.4637 24.8165C40.1397 25.1727 41.6037 24.8378 42.8556 23.8116ZM58.7554 32.8771C55.8613 32.262 53.817 31.0042 52.6223 29.1039C50.9816 26.7354 50.5476 23.7332 51.3205 20.0973C52.1089 16.3882 53.7264 13.822 56.1731 12.3989C58.0374 11.1488 60.4165 10.8313 63.3106 11.4464C66.2046 12.0616 68.249 13.3193 69.4436 15.2197C71.0908 17.5129 71.5201 20.5141 70.7317 24.2233C69.9589 27.8592 68.3459 30.4263 65.8929 31.9246C64.0286 33.1748 61.6494 33.4923 58.7554 32.8771ZM63.9093 28.2867C65.1521 27.2587 66.0158 25.6044 66.5005 23.3239C66.9833 21.0526 66.8616 19.1937 66.1353 17.7471C65.42 16.2932 64.2245 15.3882 62.5485 15.0319C60.8725 14.6757 59.4039 15.0097 58.1429 16.0339C56.8818 17.0581 56.0089 18.7104 55.5242 20.9908C55.0395 23.2713 55.1648 25.1358 55.9003 26.5844C56.6358 28.0329 57.8415 28.9354 59.5175 29.2916C61.1935 29.6478 62.6574 29.3129 63.9093 28.2867Z" fill="#101010"/>
<path d="M31.5686 24.6288L32.4152 24.0966L32.4033 24.0777L32.3906 24.0593L31.5686 24.6288ZM35.1193 7.92381L35.6221 8.78822L35.6497 8.77216L35.6763 8.75436L35.1193 7.92381ZM48.3899 10.7446L47.5433 11.2768L47.5597 11.3029L47.5777 11.3279L48.3899 10.7446ZM44.8391 27.4495L44.3179 26.5961L44.2998 26.6072L44.2822 26.619L44.8391 27.4495ZM42.8556 23.8116L43.4895 24.585L43.493 24.5821L42.8556 23.8116ZM45.0815 13.272L44.1842 13.7134L44.1878 13.7206L45.0815 13.272ZM37.7016 28.402L37.9095 27.4239C35.1922 26.8463 33.4244 25.7019 32.4152 24.0966L31.5686 24.6288L30.722 25.161C32.1021 27.3563 34.4229 28.7274 37.4937 29.3802L37.7016 28.402ZM31.5686 24.6288L32.3906 24.0593C30.9491 21.9785 30.5118 19.2789 31.2449 15.8301L30.2667 15.6222L29.2886 15.4143C28.476 19.2372 28.9066 22.5421 30.7466 25.1982L31.5686 24.6288ZM30.2667 15.6222L31.2449 15.8301C31.9955 12.2988 33.4946 10.0257 35.6221 8.78822L35.1193 7.92381L34.6166 7.0594C31.8508 8.66812 30.1148 11.5273 29.2886 15.4143L30.2667 15.6222ZM35.1193 7.92381L35.6763 8.75436C37.2512 7.69828 39.3316 7.37188 42.0489 7.94946L42.2569 6.97131L42.4648 5.99316C39.3939 5.34044 36.7161 5.64904 34.5624 7.09327L35.1193 7.92381ZM42.2569 6.97131L42.0489 7.94946C44.7662 8.52704 46.5341 9.67142 47.5433 11.2768L48.3899 10.7446L49.2365 10.2123C47.8564 8.017 45.5356 6.64589 42.4648 5.99316L42.2569 6.97131ZM48.3899 10.7446L47.5777 11.3279C49.0097 13.3217 49.4507 16.0077 48.6999 19.5403L49.678 19.7482L50.6561 19.9561C51.4821 16.0704 51.0644 12.754 49.2021 10.1612L48.3899 10.7446ZM49.678 19.7482L48.6999 19.5403C47.9665 22.9904 46.4727 25.28 44.3179 26.5961L44.8391 27.4495L45.3604 28.3029C48.1117 26.6224 49.8438 23.7778 50.6561 19.9561L49.678 19.7482ZM44.8391 27.4495L44.2822 26.619C42.7073 27.675 40.6268 28.0014 37.9095 27.4239L37.7016 28.402L37.4937 29.3802C40.5645 30.0329 43.2424 29.7243 45.3961 28.2801L44.8391 27.4495ZM42.8556 23.8116L43.493 24.5821C44.9721 23.3585 45.9136 21.4624 46.425 19.0567L45.4468 18.8488L44.4687 18.6409C44.0106 20.7962 43.2246 22.2086 42.2182 23.0411L42.8556 23.8116ZM45.4468 18.8488L46.425 19.0567C46.935 16.6574 46.8395 14.5447 45.9752 12.8233L45.0815 13.272L44.1878 13.7206C44.7762 14.8925 44.9242 16.4977 44.4687 18.6409L45.4468 18.8488ZM45.0815 13.272L45.9788 12.8305C45.1195 11.0838 43.6586 9.99444 41.7026 9.57868L41.4947 10.5568L41.2868 11.535C42.6828 11.8317 43.6131 12.5525 44.1842 13.7134L45.0815 13.272ZM41.4947 10.5568L41.7026 9.57868C39.7497 9.16357 37.9688 9.55611 36.4587 10.7825L37.0891 11.5588L37.7196 12.335C38.7317 11.513 39.8878 11.2376 41.2868 11.535L41.4947 10.5568ZM37.0891 11.5588L36.4587 10.7825C34.9572 12.002 34.0044 13.8987 33.4923 16.3078L34.4705 16.5157L35.4486 16.7236C35.906 14.5719 36.699 13.1639 37.7196 12.335L37.0891 11.5588ZM34.4705 16.5157L33.4923 16.3078C32.9802 18.717 33.0792 20.8372 33.9549 22.562L34.8466 22.1093L35.7382 21.6565C35.143 20.4842 34.9912 18.8754 35.4486 16.7236L34.4705 16.5157ZM34.8466 22.1093L33.9549 22.562C34.8356 24.2965 36.3029 25.3795 38.2558 25.7946L38.4637 24.8165L38.6717 23.8383C37.2726 23.541 36.3285 22.8191 35.7382 21.6565L34.8466 22.1093ZM38.4637 24.8165L38.2558 25.7946C40.2089 26.2098 41.9873 25.8164 43.4895 24.585L42.8556 23.8116L42.2217 23.0382C41.2201 23.8592 40.0705 24.1357 38.6717 23.8383L38.4637 24.8165ZM52.6223 29.1039L53.4689 28.5717L53.4571 28.5528L53.4444 28.5344L52.6223 29.1039ZM56.1731 12.3989L56.6759 13.2633L56.7035 13.2473L56.73 13.2295L56.1731 12.3989ZM69.4436 15.2197L68.597 15.7519L68.6134 15.778L68.6314 15.803L69.4436 15.2197ZM65.8929 31.9246L65.3716 31.0712L65.3535 31.0823L65.3359 31.0941L65.8929 31.9246ZM63.9093 28.2867L64.5433 29.0601L64.5468 29.0573L63.9093 28.2867ZM66.1353 17.7471L65.2379 18.1885L65.2416 18.1958L66.1353 17.7471ZM58.7554 32.8771L58.9633 31.899C56.246 31.3214 54.4781 30.177 53.4689 28.5717L52.6223 29.1039L51.7757 29.6361C53.1558 31.8314 55.4766 33.2025 58.5474 33.8553L58.7554 32.8771ZM52.6223 29.1039L53.4444 28.5344C52.0029 26.4536 51.5655 23.7541 52.2986 20.3052L51.3205 20.0973L50.3423 19.8894C49.5297 23.7124 49.9603 27.0172 51.8003 29.6733L52.6223 29.1039ZM51.3205 20.0973L52.2986 20.3052C53.0492 16.7739 54.5483 14.5008 56.6759 13.2633L56.1731 12.3989L55.6703 11.5345C52.9045 13.1432 51.1685 16.0024 50.3423 19.8894L51.3205 20.0973ZM56.1731 12.3989L56.73 13.2295C58.3049 12.1734 60.3854 11.847 63.1027 12.4246L63.3106 11.4464L63.5185 10.4683C60.4477 9.81555 57.7698 10.1242 55.6161 11.5684L56.1731 12.3989ZM63.3106 11.4464L63.1027 12.4246C65.82 13.0021 67.5878 14.1465 68.597 15.7519L69.4436 15.2197L70.2902 14.6875C68.9102 12.4921 66.5893 11.121 63.5185 10.4683L63.3106 11.4464ZM69.4436 15.2197L68.6314 15.803C70.0634 17.7968 70.5045 20.4828 69.7536 24.0154L70.7317 24.2233L71.7099 24.4312C72.5358 20.5455 72.1181 17.2291 70.2558 14.6363L69.4436 15.2197ZM70.7317 24.2233L69.7536 24.0154C69.0202 27.4655 67.5264 29.7551 65.3716 31.0712L65.8929 31.9246L66.4141 32.778C69.1654 31.0975 70.8976 28.2529 71.7099 24.4312L70.7317 24.2233ZM65.8929 31.9246L65.3359 31.0941C63.761 32.1501 61.6806 32.4765 58.9633 31.899L58.7554 32.8771L58.5474 33.8553C61.6183 34.508 64.2961 34.1994 66.4498 32.7552L65.8929 31.9246ZM63.9093 28.2867L64.5468 29.0573C66.0259 27.8336 66.9674 25.9375 67.4787 23.5318L66.5005 23.3239L65.5224 23.116C65.0643 25.2713 64.2783 26.6837 63.2719 27.5162L63.9093 28.2867ZM66.5005 23.3239L67.4787 23.5318C67.9887 21.1325 67.8932 19.0198 67.0289 17.2984L66.1353 17.7471L65.2416 18.1958C65.8299 19.3676 65.978 20.9728 65.5224 23.116L66.5005 23.3239ZM66.1353 17.7471L67.0326 17.3056C66.1732 15.5589 64.7123 14.4695 62.7564 14.0538L62.5485 15.0319L62.3406 16.0101C63.7366 16.3068 64.6669 17.0276 65.238 18.1885L66.1353 17.7471ZM62.5485 15.0319L62.7564 14.0538C60.8034 13.6387 59.0225 14.0312 57.5124 15.2576L58.1429 16.0339L58.7733 16.8101C59.7854 15.9881 60.9415 15.7127 62.3406 16.0101L62.5485 15.0319ZM58.1429 16.0339L57.5124 15.2576C56.0109 16.4771 55.0581 18.3738 54.546 20.7829L55.5242 20.9908L56.5023 21.1988C56.9597 19.047 57.7527 17.639 58.7733 16.8101L58.1429 16.0339ZM55.5242 20.9908L54.546 20.7829C54.034 23.1921 54.1329 25.3123 55.0086 27.0371L55.9003 26.5844L56.792 26.1317C56.1967 24.9593 56.045 23.3505 56.5023 21.1988L55.5242 20.9908ZM55.9003 26.5844L55.0086 27.0371C55.8893 28.7717 57.3566 29.8546 59.3096 30.2697L59.5175 29.2916L59.7254 28.3134C58.3264 28.0161 57.3822 27.2942 56.792 26.1317L55.9003 26.5844ZM59.5175 29.2916L59.3096 30.2697C61.2627 30.6849 63.041 30.2915 64.5433 29.0601L63.9093 28.2867L63.2754 27.5133C62.2738 28.3343 61.1243 28.6108 59.7254 28.3134L59.5175 29.2916Z" fill="white" mask="url(#path-3-outside-1_2044_235)"/>
<mask id="path-5-outside-2_2044_235" maskUnits="userSpaceOnUse" x="35.6882" y="30.9483" width="32.6484" height="43.3882" fill="black">
<rect fill="white" x="35.6882" y="30.9483" width="32.6484" height="43.3882"/>
<path d="M51.0275 42.6951L51.9528 38.3976L44.6759 36.8309L45.5804 32.6296L65.8184 36.9867L63.9206 45.8013C63.4831 47.8334 62.6126 49.3412 61.309 50.3247C60.0054 51.3083 58.2598 51.5646 56.0721 51.0936C53.6831 50.5793 52.1244 49.6116 51.396 48.1905C50.6675 46.7694 50.5447 44.9376 51.0275 42.6951ZM54.817 45.5797C55.1839 46.2333 55.8936 46.6735 56.9462 46.9001C57.9989 47.1267 58.8095 47.0091 59.3783 46.5473C59.945 46.0947 60.3358 45.3695 60.5506 44.3718L61.399 40.4313L55.4402 39.1484L54.5918 43.0889C54.377 44.0866 54.4521 44.9169 54.817 45.5797ZM42.6036 60.6696C42.3888 61.6673 42.3242 62.5011 42.4099 63.1708C42.5767 64.4422 43.2322 65.2011 44.3764 65.4474C45.0446 65.5913 45.6248 65.4097 46.117 64.9027C46.6001 64.3938 47.114 63.5419 47.6586 62.347L48.6002 60.3086C49.5295 58.3058 50.36 56.9618 51.0917 56.2765C52.319 55.1136 53.9258 54.746 55.912 55.1737C57.7244 55.5639 59.0882 56.5471 60.0035 58.1233C60.9188 59.6995 61.1016 61.7645 60.5517 64.3183C60.0926 66.451 59.1339 68.1458 57.6757 69.4025C56.2247 70.6704 54.4158 71.1095 52.249 70.7196L53.124 66.6555C54.3571 66.8444 55.3364 66.4997 56.0618 65.6215C56.5424 65.0354 56.8881 64.2526 57.099 63.2732C57.3335 62.184 57.301 61.2671 57.0016 60.5227C56.7021 59.7782 56.1588 59.3212 55.3716 59.1517C54.6485 58.9961 54.0395 59.2002 53.5446 59.764C53.2179 60.1247 52.7495 60.9433 52.1395 62.2199L50.5511 65.5269C49.8559 66.9767 49.1179 68.0246 48.3371 68.6706C47.1251 69.6739 45.6174 69.9814 43.8142 69.5932C41.9653 69.1951 40.5802 68.1547 39.6592 66.4718C38.7453 64.8001 38.5662 62.6737 39.1219 60.0924C39.6894 57.4563 40.7353 55.5122 42.2596 54.26C43.793 53.0099 45.6123 52.6114 47.7175 53.0647L46.8485 57.1012C45.8964 57.0304 45.1511 57.1333 44.6127 57.41C43.6319 57.9172 42.9622 59.0037 42.6036 60.6696Z"/>
</mask>
<path d="M51.0275 42.6951L51.9528 38.3976L44.6759 36.8309L45.5804 32.6296L65.8184 36.9867L63.9206 45.8013C63.4831 47.8334 62.6126 49.3412 61.309 50.3247C60.0054 51.3083 58.2598 51.5646 56.0721 51.0936C53.6831 50.5793 52.1244 49.6116 51.396 48.1905C50.6675 46.7694 50.5447 44.9376 51.0275 42.6951ZM54.817 45.5797C55.1839 46.2333 55.8936 46.6735 56.9462 46.9001C57.9989 47.1267 58.8095 47.0091 59.3783 46.5473C59.945 46.0947 60.3358 45.3695 60.5506 44.3718L61.399 40.4313L55.4402 39.1484L54.5918 43.0889C54.377 44.0866 54.4521 44.9169 54.817 45.5797ZM42.6036 60.6696C42.3888 61.6673 42.3242 62.5011 42.4099 63.1708C42.5767 64.4422 43.2322 65.2011 44.3764 65.4474C45.0446 65.5913 45.6248 65.4097 46.117 64.9027C46.6001 64.3938 47.114 63.5419 47.6586 62.347L48.6002 60.3086C49.5295 58.3058 50.36 56.9618 51.0917 56.2765C52.319 55.1136 53.9258 54.746 55.912 55.1737C57.7244 55.5639 59.0882 56.5471 60.0035 58.1233C60.9188 59.6995 61.1016 61.7645 60.5517 64.3183C60.0926 66.451 59.1339 68.1458 57.6757 69.4025C56.2247 70.6704 54.4158 71.1095 52.249 70.7196L53.124 66.6555C54.3571 66.8444 55.3364 66.4997 56.0618 65.6215C56.5424 65.0354 56.8881 64.2526 57.099 63.2732C57.3335 62.184 57.301 61.2671 57.0016 60.5227C56.7021 59.7782 56.1588 59.3212 55.3716 59.1517C54.6485 58.9961 54.0395 59.2002 53.5446 59.764C53.2179 60.1247 52.7495 60.9433 52.1395 62.2199L50.5511 65.5269C49.8559 66.9767 49.1179 68.0246 48.3371 68.6706C47.1251 69.6739 45.6174 69.9814 43.8142 69.5932C41.9653 69.1951 40.5802 68.1547 39.6592 66.4718C38.7453 64.8001 38.5662 62.6737 39.1219 60.0924C39.6894 57.4563 40.7353 55.5122 42.2596 54.26C43.793 53.0099 45.6123 52.6114 47.7175 53.0647L46.8485 57.1012C45.8964 57.0304 45.1511 57.1333 44.6127 57.41C43.6319 57.9172 42.9622 59.0037 42.6036 60.6696Z" fill="#101010"/>
<path d="M51.9528 38.3976L52.9304 38.6081L53.1408 37.6305L52.1632 37.42L51.9528 38.3976ZM44.6759 36.8309L43.6983 36.6205L43.4878 37.5981L44.4654 37.8085L44.6759 36.8309ZM45.5804 32.6296L45.7909 31.652L44.8133 31.4415L44.6028 32.4191L45.5804 32.6296ZM65.8184 36.9867L66.796 37.1972L67.0064 36.2196L66.0288 36.0091L65.8184 36.9867ZM54.817 45.5797L53.9409 46.062L53.9449 46.0691L54.817 45.5797ZM59.3783 46.5473L58.7542 45.7659L58.7479 45.771L59.3783 46.5473ZM61.399 40.4313L62.3766 40.6418L62.587 39.6642L61.6094 39.4537L61.399 40.4313ZM55.4402 39.1484L55.6506 38.1708L54.673 37.9604L54.4626 38.938L55.4402 39.1484ZM51.0275 42.6951L52.0051 42.9056L52.9304 38.6081L51.9528 38.3976L50.9752 38.1871L50.0499 42.4846L51.0275 42.6951ZM51.9528 38.3976L52.1632 37.42L44.8864 35.8533L44.6759 36.8309L44.4654 37.8085L51.7423 39.3752L51.9528 38.3976ZM44.6759 36.8309L45.6535 37.0414L46.558 32.8401L45.5804 32.6296L44.6028 32.4191L43.6983 36.6205L44.6759 36.8309ZM45.5804 32.6296L45.37 33.6072L65.6079 37.9643L65.8184 36.9867L66.0288 36.0091L45.7909 31.652L45.5804 32.6296ZM65.8184 36.9867L64.8408 36.7762L62.943 45.5909L63.9206 45.8013L64.8982 46.0118L66.796 37.1972L65.8184 36.9867ZM63.9206 45.8013L62.943 45.5909C62.5419 47.454 61.7711 48.7234 60.7067 49.5265L61.309 50.3247L61.9113 51.123C63.4541 49.9589 64.4244 48.2127 64.8982 46.0118L63.9206 45.8013ZM61.309 50.3247L60.7067 49.5265C59.712 50.2769 58.2963 50.5496 56.2826 50.116L56.0721 51.0936L55.8616 52.0712C58.2232 52.5796 60.2987 52.3397 61.9113 51.123L61.309 50.3247ZM56.0721 51.0936L56.2826 50.116C54.0293 49.6309 52.8179 48.7723 52.2859 47.7344L51.396 48.1905L50.5061 48.6467C51.4309 50.4508 53.3369 51.5277 55.8616 52.0712L56.0721 51.0936ZM51.396 48.1905L52.2859 47.7344C51.7003 46.5919 51.5502 45.0187 52.0051 42.9056L51.0275 42.6951L50.0499 42.4846C49.5393 44.8566 49.6348 46.947 50.5061 48.6467L51.396 48.1905ZM54.817 45.5797L53.9449 46.0691C54.5047 47.0663 55.5283 47.6177 56.7358 47.8777L56.9462 46.9001L57.1567 45.9225C56.259 45.7292 55.863 45.4003 55.689 45.0902L54.817 45.5797ZM56.9462 46.9001L56.7358 47.8777C57.941 48.1372 59.1103 48.0531 60.0086 47.3237L59.3783 46.5473L58.7479 45.771C58.5088 45.9652 58.0568 46.1163 57.1567 45.9225L56.9462 46.9001ZM59.3783 46.5473L60.0023 47.3287C60.8101 46.6836 61.2843 45.7151 61.5282 44.5823L60.5506 44.3718L59.573 44.1614C59.3873 45.024 59.0799 45.5058 58.7542 45.766L59.3783 46.5473ZM60.5506 44.3718L61.5282 44.5823L62.3766 40.6418L61.399 40.4313L60.4214 40.2209L59.573 44.1614L60.5506 44.3718ZM61.399 40.4313L61.6094 39.4537L55.6506 38.1708L55.4402 39.1484L55.2297 40.126L61.1885 41.4089L61.399 40.4313ZM55.4402 39.1484L54.4626 38.938L53.6142 42.8785L54.5918 43.0889L55.5694 43.2994L56.4178 39.3589L55.4402 39.1484ZM54.5918 43.0889L53.6142 42.8785C53.3665 44.0289 53.4246 45.1241 53.941 46.062L54.817 45.5797L55.693 45.0974C55.4795 44.7097 55.3875 44.1443 55.5694 43.2994L54.5918 43.0889ZM42.4099 63.1708L41.418 63.2977L41.4184 63.3009L42.4099 63.1708ZM46.117 64.9027L46.8345 65.5994L46.8423 65.5912L46.117 64.9027ZM47.6586 62.347L46.7507 61.9276L46.7486 61.9323L47.6586 62.347ZM48.6002 60.3086L47.6931 59.8877L47.6924 59.8892L48.6002 60.3086ZM51.0917 56.2765L51.7753 57.0064L51.7795 57.0024L51.0917 56.2765ZM57.6757 69.4025L57.0228 68.645L57.0177 68.6495L57.6757 69.4025ZM52.249 70.7196L51.2714 70.5091L51.0536 71.5205L52.0719 71.7038L52.249 70.7196ZM53.124 66.6555L53.2754 65.667L52.3446 65.5245L52.1464 66.445L53.124 66.6555ZM56.0618 65.6215L56.8328 66.2584L56.8351 66.2556L56.0618 65.6215ZM57.0016 60.5227L57.9293 60.1495L57.0016 60.5227ZM53.5446 59.764L54.2857 60.4353L54.291 60.4296L54.2961 60.4237L53.5446 59.764ZM52.1395 62.2199L53.0409 62.6528L53.0418 62.651L52.1395 62.2199ZM50.5511 65.5269L49.6497 65.094L49.6495 65.0945L50.5511 65.5269ZM48.3371 68.6706L47.6997 67.9001L47.6995 67.9003L48.3371 68.6706ZM39.6592 66.4718L38.7817 66.9515L38.782 66.952L39.6592 66.4718ZM42.2596 54.26L41.6277 53.485L41.6248 53.4873L42.2596 54.26ZM47.7175 53.0647L48.6951 53.2751L48.9056 52.2975L47.928 52.0871L47.7175 53.0647ZM46.8485 57.1012L46.7742 58.0985L47.6428 58.1632L47.8261 57.3117L46.8485 57.1012ZM44.6127 57.41L44.1556 56.5206L44.1533 56.5218L44.6127 57.41ZM42.6036 60.6696L41.626 60.4592C41.3983 61.5169 41.3125 62.4735 41.418 63.2977L42.4099 63.1708L43.4018 63.0439C43.3359 62.5286 43.3793 61.8178 43.5812 60.8801L42.6036 60.6696ZM42.4099 63.1708L41.4184 63.3009C41.5202 64.0767 41.7831 64.7837 42.2699 65.3472C42.7625 65.9175 43.4182 66.264 44.1659 66.425L44.3764 65.4474L44.5868 64.4698C44.1904 64.3845 43.9463 64.2284 43.7834 64.0398C43.6146 63.8444 43.4664 63.5363 43.4014 63.0407L42.4099 63.1708ZM44.3764 65.4474L44.1659 66.425C45.1848 66.6444 46.1119 66.3435 46.8345 65.5993L46.117 64.9027L45.3996 64.2061C45.1376 64.4759 44.9043 64.5382 44.5868 64.4698L44.3764 65.4474ZM46.117 64.9027L46.8423 65.5912C47.4418 64.9596 48.0107 63.9855 48.5685 62.7617L47.6586 62.347L46.7486 61.9323C46.2172 63.0982 45.7585 63.8279 45.3918 64.2143L46.117 64.9027ZM47.6586 62.347L48.5664 62.7664L49.5081 60.7279L48.6002 60.3086L47.6924 59.8892L46.7508 61.9276L47.6586 62.347ZM48.6002 60.3086L49.5074 60.7294C50.432 58.7366 51.1958 57.5491 51.7753 57.0064L51.0917 56.2765L50.4082 55.5466C49.5242 56.3744 48.627 57.8749 47.6931 59.8877L48.6002 60.3086ZM51.0917 56.2765L51.7795 57.0024C52.7168 56.1143 53.9635 55.7771 55.7015 56.1513L55.912 55.1737L56.1225 54.1961C53.888 53.715 51.9211 54.113 50.4039 55.5506L51.0917 56.2765ZM55.912 55.1737L55.7015 56.1513C57.2439 56.4833 58.3676 57.2975 59.1387 58.6255L60.0035 58.1233L60.8683 57.6211C59.8088 55.7967 58.2048 54.6444 56.1225 54.1961L55.912 55.1737ZM60.0035 58.1233L59.1387 58.6255C59.8841 59.9091 60.0941 61.6928 59.5741 64.1078L60.5517 64.3183L61.5293 64.5288C62.109 61.8362 61.9535 59.49 60.8683 57.6211L60.0035 58.1233ZM60.5517 64.3183L59.5741 64.1078C59.1544 66.0574 58.2945 67.549 57.0229 68.6451L57.6757 69.4025L58.3286 70.16C59.9733 68.7425 61.0308 66.8446 61.5293 64.5288L60.5517 64.3183ZM57.6757 69.4025L57.0177 68.6495C55.8299 69.6874 54.3419 70.0801 52.4261 69.7354L52.249 70.7196L52.0719 71.7038C54.4896 72.1388 56.6195 71.6535 58.3337 70.1556L57.6757 69.4025ZM52.249 70.7196L53.2266 70.93L54.1016 66.866L53.124 66.6555L52.1464 66.445L51.2714 70.5091L52.249 70.7196ZM53.124 66.6555L52.9726 67.644C54.5137 67.88 55.8586 67.4377 56.8328 66.2584L56.0618 65.6215L55.2908 64.9847C54.8142 65.5617 54.2006 65.8087 53.2754 65.667L53.124 66.6555ZM56.0618 65.6215L56.8351 66.2556C57.4436 65.5134 57.8426 64.5705 58.0766 63.4837L57.099 63.2732L56.1214 63.0628C55.9336 63.9348 55.6412 64.5574 55.2885 64.9875L56.0618 65.6215ZM57.099 63.2732L58.0766 63.4837C58.3373 62.2727 58.327 61.1383 57.9293 60.1495L57.0016 60.5227L56.0738 60.8958C56.2749 61.3959 56.3296 62.0953 56.1214 63.0628L57.099 63.2732ZM57.0016 60.5227L57.9293 60.1495C57.5055 59.0957 56.6925 58.4132 55.5821 58.1741L55.3716 59.1517L55.1612 60.1293C55.6251 60.2292 55.8988 60.4607 56.0738 60.8958L57.0016 60.5227ZM55.3716 59.1517L55.5821 58.1741C55.0721 58.0643 54.554 58.0726 54.0548 58.2399C53.5564 58.4069 53.1373 58.7122 52.793 59.1044L53.5446 59.764L54.2961 60.4237C54.4468 60.252 54.5797 60.1733 54.6903 60.1362C54.8001 60.0994 54.9481 60.0835 55.1612 60.1293L55.3716 59.1517ZM53.5446 59.764L52.8034 59.0927C52.363 59.5789 51.8376 60.5323 51.2372 61.7887L52.1395 62.2199L53.0418 62.651C53.6614 61.3543 54.0728 60.6704 54.2857 60.4353L53.5446 59.764ZM52.1395 62.2199L51.2381 61.7869L49.6497 65.094L50.5511 65.5269L51.4526 65.9599L53.0409 62.6528L52.1395 62.2199ZM50.5511 65.5269L49.6495 65.0945C48.9841 66.482 48.3225 67.3848 47.6997 67.9001L48.3371 68.6706L48.9746 69.4411C49.9133 68.6644 50.7277 67.4714 51.4528 65.9593L50.5511 65.5269ZM48.3371 68.6706L47.6995 67.9003C46.7656 68.6733 45.5863 68.9518 44.0247 68.6156L43.8142 69.5932L43.6038 70.5708C45.6486 71.011 47.4845 70.6745 48.9748 69.4409L48.3371 68.6706ZM43.8142 69.5932L44.0247 68.6156C42.4643 68.2796 41.3203 67.424 40.5364 65.9917L39.6592 66.4718L38.782 66.952C39.8402 68.8854 41.4662 70.1106 43.6038 70.5708L43.8142 69.5932ZM39.6592 66.4718L40.5366 65.9922C39.7755 64.5999 39.5748 62.7398 40.0995 60.3029L39.1219 60.0924L38.1443 59.882C37.5575 62.6075 37.715 65.0003 38.7817 66.9515L39.6592 66.4718ZM39.1219 60.0924L40.0995 60.3029C40.6368 57.8072 41.5989 56.0969 42.8943 55.0327L42.2596 54.26L41.6248 53.4873C39.8718 54.9274 38.7421 57.1054 38.1443 59.882L39.1219 60.0924ZM42.2596 54.26L42.8915 55.0351C44.1666 53.9955 45.6687 53.6465 47.5071 54.0423L47.7175 53.0647L47.928 52.0871C45.5559 51.5763 43.4194 52.0242 41.6277 53.485L42.2596 54.26ZM47.7175 53.0647L46.7399 52.8542L45.8709 56.8908L46.8485 57.1012L47.8261 57.3117L48.6951 53.2751L47.7175 53.0647ZM46.8485 57.1012L46.9227 56.104C45.8836 56.0266 44.9267 56.1243 44.1556 56.5206L44.6127 57.41L45.0698 58.2994C45.3756 58.1423 45.9092 58.0341 46.7742 58.0985L46.8485 57.1012ZM44.6127 57.41L44.1533 56.5218C42.79 57.2268 42.0131 58.6612 41.626 60.4592L42.6036 60.6696L43.5812 60.8801C43.9114 59.3463 44.4739 58.6076 45.072 58.2983L44.6127 57.41Z" fill="white" mask="url(#path-5-outside-2_2044_235)"/>
</svg>
